<?xml version="1.0" encoding="UTF-8" standalone="no"?>
<svg
   version="1.1"
   width="40mm"
   height="140mm"
   viewBox="0 0 40.000001 140"
   id="svg278"
   sodipodi:docname="HagiwoKick_Panel_LaserCut_v2.svg"
   inkscape:version="1.4 (e7c3feb100, 2024-10-09)"
   xmlns:inkscape="http://www.inkscape.org/namespaces/inkscape"
   xmlns:sodipodi="http://sodipodi.sourceforge.net/DTD/sodipodi-0.dtd"
   xmlns="http://www.w3.org/2000/svg"
   xmlns:svg="http://www.w3.org/2000/svg"
   xmlns:rdf="http://www.w3.org/1999/02/22-rdf-syntax-ns#"
   xmlns:cc="http://creativecommons.org/ns#"
   xmlns:dc="http://purl.org/dc/elements/1.1/">
  <defs
     id="defs278" />
  <sodipodi:namedview
     id="namedview278"
     pagecolor="#ffffff"
     bordercolor="#000000"
     borderopacity="0.25"
     inkscape:showpageshadow="2"
     inkscape:pageopacity="0.0"
     inkscape:pagecheckerboard="0"
     inkscape:deskcolor="#d1d1d1"
     inkscape:document-units="mm"
     inkscape:zoom="3.0098686"
     inkscape:cx="78.9071"
     inkscape:cy="103.49289"
     inkscape:window-width="1920"
     inkscape:window-height="1080"
     inkscape:window-x="0"
     inkscape:window-y="0"
     inkscape:window-maximized="1"
     inkscape:current-layer="svg278" />
  <title
     id="title1">SVG Image created as HagiwoKick_Panel-F_Silkscreen.svg date 2024/08/04 18:38:52 </title>
  <desc
     id="desc1">Image generated by PCBNEW </desc>
  <g
     style="fill:#000000;fill-opacity:1;stroke:#000000;stroke-linecap:round;stroke-linejoin:round;stroke-opacity:1"
     id="g1" />
  <g
     style="fill:#ffffff;fill-opacity:1;stroke:none"
     id="g264" />
  <g
     style="fill:#ffffff;fill-opacity:1;stroke:none"
     id="g265" />
  <g
     style="fill:#ffffff;fill-opacity:1;stroke:none"
     id="g266" />
  <g
     style="fill:#ffffff;fill-opacity:1;stroke:none"
     id="g267" />
  <g
     style="fill:#ffffff;fill-opacity:1;stroke:none"
     id="g268" />
  <g
     style="fill:#ffffff;fill-opacity:1;stroke:none"
     id="g269" />
  <g
     style="fill:#ffffff;fill-opacity:1;stroke:none"
     id="g270" />
  <g
     id="g279"
     style="fill:none;fill-opacity:1;stroke:#ff0000;stroke-width:0.01;stroke-dasharray:none;stroke-opacity:1"
     transform="translate(-45.998429,-46.282369)">
    <circle
       cx="73.419998"
       cy="160.0813"
       r="3.302"
       id="circle263"
       style="fill:none;fill-opacity:1;stroke:#ff0000;stroke-width:0.01;stroke-dasharray:none;stroke-opacity:1" />
    <circle
       cx="58.18"
       cy="160.0813"
       r="3.302"
       id="circle264"
       style="fill:none;fill-opacity:1;stroke:#ff0000;stroke-width:0.01;stroke-dasharray:none;stroke-opacity:1" />
    <circle
       cx="73.419998"
       cy="143.33"
       r="3.302"
       id="circle265"
       style="fill:none;fill-opacity:1;stroke:#ff0000;stroke-width:0.01;stroke-dasharray:none;stroke-opacity:1" />
    <circle
       cx="65.800003"
       cy="107.7192"
       r="3.302"
       id="circle266"
       style="fill:none;fill-opacity:1;stroke:#ff0000;stroke-width:0.01;stroke-dasharray:none;stroke-opacity:1" />
    <circle
       cx="65.800201"
       cy="68.401802"
       r="3.302"
       id="circle267"
       style="fill:none;fill-opacity:1;stroke:#ff0000;stroke-width:0.01;stroke-dasharray:none;stroke-opacity:1" />
    <circle
       cx="58.174999"
       cy="143.31731"
       r="1.524"
       id="circle268"
       style="fill:none;fill-opacity:1;stroke:#ff0000;stroke-width:0.01;stroke-dasharray:none;stroke-opacity:1" />
    <circle
       cx="65.800003"
       cy="88.059601"
       r="3.302"
       id="circle269"
       style="fill:none;fill-opacity:1;stroke:#ff0000;stroke-width:0.01;stroke-dasharray:none;stroke-opacity:1" />
    <g
       style="fill:none;fill-opacity:1;stroke:#ff0000;stroke-width:0.01;stroke-dasharray:none;stroke-opacity:1"
       id="g271">
      <circle
         cx="65.799797"
         cy="127.377"
         r="3.302"
         id="circle270"
         style="fill:none;fill-opacity:1;stroke:#ff0000;stroke-width:0.01;stroke-dasharray:none;stroke-opacity:1" />
      <path
         style="fill:none;fill-opacity:1;stroke:#ff0000;stroke-width:0.01;stroke-linecap:round;stroke-linejoin:round;stroke-dasharray:none;stroke-opacity:1"
         d="M 50.8,50.8 H 80.786 V 179.3 H 50.8 Z"
         id="path270" />
    </g>
    <g
       style="fill:none;fill-opacity:1;stroke:#ff0000;stroke-width:0.01;stroke-linecap:round;stroke-linejoin:round;stroke-dasharray:none;stroke-opacity:1"
       id="g278">
      <path
         d="m 56.7125,52.2125 h 3.175"
         id="path271"
         style="fill:none;fill-opacity:1;stroke:#ff0000;stroke-width:0.01;stroke-dasharray:none;stroke-opacity:1" />
      <path
         d="m 56.7125,55.3875 h 3.175"
         id="path272"
         style="fill:none;fill-opacity:1;stroke:#ff0000;stroke-width:0.01;stroke-dasharray:none;stroke-opacity:1" />
      <path
         d="m 56.7125,52.2125 a 1.5875,1.5875 0 0 0 0,3.175"
         id="path273"
         style="fill:none;fill-opacity:1;stroke:#ff0000;stroke-width:0.01;stroke-dasharray:none;stroke-opacity:1" />
      <path
         d="m 59.8875,55.3875 a 1.5875,1.5875 0 0 0 0,-3.175"
         id="path274"
         style="fill:none;fill-opacity:1;stroke:#ff0000;stroke-width:0.01;stroke-dasharray:none;stroke-opacity:1" />
      <path
         d="m 69.5325,174.7125 h 3.175"
         id="path275"
         style="fill:none;fill-opacity:1;stroke:#ff0000;stroke-width:0.01;stroke-dasharray:none;stroke-opacity:1" />
      <path
         d="m 69.5325,177.8875 h 3.175"
         id="path276"
         style="fill:none;fill-opacity:1;stroke:#ff0000;stroke-width:0.01;stroke-dasharray:none;stroke-opacity:1" />
      <path
         d="m 69.5325,174.7125 a 1.5875,1.5875 0 0 0 0,3.175"
         id="path277"
         style="fill:none;fill-opacity:1;stroke:#ff0000;stroke-width:0.01;stroke-dasharray:none;stroke-opacity:1" />
      <path
         d="m 72.7075,177.8875 a 1.5875,1.5875 0 0 0 0,-3.175"
         id="path278"
         style="fill:none;fill-opacity:1;stroke:#ff0000;stroke-width:0.01;stroke-dasharray:none;stroke-opacity:1" />
    </g>
  </g>
  <metadata
     id="metadata1">
    <rdf:RDF>
      <cc:Work
         rdf:about="">
        <dc:title>SVG Image created as HagiwoKick_Panel-F_Silkscreen.svg date 2024/08/04 18:38:52 </dc:title>
      </cc:Work>
    </rdf:RDF>
  </metadata>
  <text
     xml:space="preserve"
     style="font-style:normal;font-variant:normal;font-weight:bold;font-stretch:normal;font-size:4.7127px;font-family:sans-serif;-inkscape-font-specification:'sans-serif Bold';text-align:end;writing-mode:lr-tb;direction:ltr;text-anchor:end;vector-effect:none;fill:#000000;fill-opacity:1;stroke:none;stroke-width:0.0148431;stroke-linecap:round;stroke-linejoin:round;stroke-miterlimit:4;stroke-dasharray:none;stroke-dashoffset:0;stroke-opacity:1;-inkscape-stroke:none"
     x="33.646252"
     y="9.5671253"
     id="text1068"
     transform="scale(0.90194243,1.1087182)"><tspan
       sodipodi:role="line"
       style="font-style:normal;font-variant:normal;font-weight:bold;font-stretch:normal;font-family:sans-serif;-inkscape-font-specification:'sans-serif Bold';text-align:end;text-anchor:end;stroke-width:0.0148431"
       x="33.646252"
       y="9.5671253"
       id="tspan1069">KICK</tspan></text>
  <text
     xml:space="preserve"
     style="font-size:3.175px;font-variation-settings:normal;text-align:start;writing-mode:lr-tb;direction:ltr;text-anchor:start;display:inline;vector-effect:none;fill:#000000;fill-opacity:1;stroke:none;stroke-width:0.01;stroke-linecap:round;stroke-linejoin:round;stroke-miterlimit:4;stroke-dasharray:none;stroke-dashoffset:0;stroke-opacity:1;-inkscape-stroke:none"
     x="15.723678"
     y="30.842819"
     id="text1066"><tspan
       sodipodi:role="line"
       id="tspan1066"
       style="fill:#000000;fill-opacity:1;stroke:none;stroke-width:0.01"
       x="15.723678"
       y="30.842819">TONE</tspan></text>
  <text
     xml:space="preserve"
     style="font-size:3.175px;font-variation-settings:normal;text-align:start;writing-mode:lr-tb;direction:ltr;text-anchor:start;vector-effect:none;fill:#000000;fill-opacity:1;stroke:none;stroke-width:0.01;stroke-linecap:round;stroke-linejoin:round;stroke-miterlimit:4;stroke-dasharray:none;stroke-dashoffset:0;stroke-opacity:1;-inkscape-stroke:none"
     x="10.267441"
     y="51.128696"
     id="text1066-3"><tspan
       sodipodi:role="line"
       id="tspan1066-6"
       style="fill:#000000;fill-opacity:1;stroke:none;stroke-width:0.01"
       x="10.267441"
       y="51.128696">HARMONICS</tspan></text>
  <text
     xml:space="preserve"
     style="font-size:3.175px;font-variation-settings:normal;text-align:start;writing-mode:lr-tb;direction:ltr;text-anchor:start;vector-effect:none;fill:#000000;fill-opacity:1;stroke:none;stroke-width:0.01;stroke-linecap:round;stroke-linejoin:round;stroke-miterlimit:4;stroke-dasharray:none;stroke-dashoffset:0;stroke-opacity:1;-inkscape-stroke:none"
     x="14.807691"
     y="71.67569"
     id="text1066-2"><tspan
       sodipodi:role="line"
       id="tspan1066-9"
       style="fill:#000000;fill-opacity:1;stroke:none;stroke-width:0.01"
       x="14.807691"
       y="71.67569">DECAY</tspan></text>
  <text
     xml:space="preserve"
     style="font-size:3.175px;font-variation-settings:normal;text-align:start;writing-mode:lr-tb;direction:ltr;text-anchor:start;vector-effect:none;fill:#000000;fill-opacity:1;stroke:none;stroke-width:0.01;stroke-linecap:round;stroke-linejoin:round;stroke-miterlimit:4;stroke-dasharray:none;stroke-dashoffset:0;stroke-opacity:1;-inkscape-stroke:none"
     x="14.266353"
     y="91.871933"
     id="text1066-1"><tspan
       sodipodi:role="line"
       id="tspan1066-94"
       style="fill:#000000;fill-opacity:1;stroke:none;stroke-width:0.01"
       x="14.266353"
       y="91.871933">ATTACK</tspan></text>
  <text
     xml:space="preserve"
     style="font-size:3.175px;font-variation-settings:normal;text-align:start;writing-mode:lr-tb;direction:ltr;text-anchor:start;vector-effect:none;fill:#000000;fill-opacity:1;stroke:none;stroke-width:0.01;stroke-linecap:round;stroke-linejoin:round;stroke-miterlimit:4;stroke-dasharray:none;stroke-dashoffset:0;stroke-opacity:1;-inkscape-stroke:none"
     x="25.706238"
     y="105.98622"
     id="text1066-8"><tspan
       sodipodi:role="line"
       id="tspan1066-4"
       style="fill:#000000;fill-opacity:1;stroke:none;stroke-width:0.01"
       x="25.706238"
       y="105.98622">CV</tspan></text>
  <text
     xml:space="preserve"
     style="font-size:3.175px;font-variation-settings:normal;text-align:start;writing-mode:lr-tb;direction:ltr;text-anchor:start;vector-effect:none;fill:#000000;fill-opacity:1;stroke:none;stroke-width:0.01;stroke-linecap:round;stroke-linejoin:round;stroke-miterlimit:4;stroke-dasharray:none;stroke-dashoffset:0;stroke-opacity:1;-inkscape-stroke:none"
     x="24.396549"
     y="122.47813"
     id="text1066-0"><tspan
       sodipodi:role="line"
       id="tspan1066-3"
       style="fill:#000000;fill-opacity:1;stroke:none;stroke-width:0.01"
       x="24.396549"
       y="122.47813">OUT</tspan></text>
  <text
     xml:space="preserve"
     style="font-size:3.175px;font-variation-settings:normal;text-align:start;writing-mode:lr-tb;direction:ltr;text-anchor:start;vector-effect:none;fill:#000000;fill-opacity:1;stroke:none;stroke-width:0.01;stroke-linecap:round;stroke-linejoin:round;stroke-miterlimit:4;stroke-dasharray:none;stroke-dashoffset:0;stroke-opacity:1;-inkscape-stroke:none"
     x="8.6120577"
     y="122.47655"
     id="text1066-10"><tspan
       sodipodi:role="line"
       id="tspan1066-63"
       style="fill:#000000;fill-opacity:1;stroke:none;stroke-width:0.01"
       x="8.6120577"
       y="122.47655">TRIG</tspan></text>
  <rect
     style="font-variation-settings:normal;vector-effect:none;fill:#000000;fill-opacity:1;stroke:none;stroke-width:0.01;stroke-linecap:round;stroke-linejoin:round;stroke-miterlimit:4;stroke-dasharray:none;stroke-dashoffset:0;stroke-opacity:1;-inkscape-stroke:none"
     id="rect1068-9"
     width="28.372061"
     height="0.86853242"
     x="5.6381602"
     y="13.405847" />
  <g
     id="g1348"
     transform="matrix(0.44474165,0,0,0.82319265,-33.673784,11.985331)"
     style="fill:#000000;fill-opacity:1">
    <path
       style="fill:#000000;fill-opacity:1;fill-rule:evenodd;stroke:none;stroke-width:0.3;stroke-linecap:round;stroke-linejoin:round;stroke-opacity:1"
       d="m 97.215805,143.31792 -0.0452,0.3126 h -4.0343 l 0.0452,-0.3126 h 2.393 l 0.149,-0.9379 h -1.1718 l -0.1297,-0.0141 -0.1181,-0.0468 -0.0367,-0.0246 -0.08,-0.0949 -0.0141,-0.1139 0.017,-0.1253 0.002,-0.0127 0.0188,-0.125 0.002,-0.013 0.051,-0.1184 0.0921,-0.0815 0.008,-0.005 0.1159,-0.0545 0.1274,-0.0268 0.0627,-0.003 h 2.0162 l -0.0446,0.3126 h -1.5955 l -0.0342,0.2345 h 1.1742 l 0.1295,0.014 0.1174,0.0464 0.0364,0.0244 0.08,0.0953 0.0153,0.116 -0.0204,0.1224 -0.0201,0.1223 -0.0199,0.1222 -0.0196,0.1222 -0.0191,0.1207 -0.0209,0.1323 -0.0205,0.1286 -0.0134,0.0837 z"
       id="path1232" />
    <path
       style="fill:#000000;fill-opacity:1;fill-rule:evenodd;stroke:none;stroke-width:0.3;stroke-linecap:round;stroke-linejoin:round;stroke-opacity:1"
       d="m 97.344005,142.06742 h 0.8378 l -0.1973,1.2505 h 0.7596 l 0.1954,-1.2505 h 0.8359 l -0.1954,1.2505 h 0.796895 l -0.0452,0.3126 h -0.797405 l -0.0367,0.2369 -0.0527,0.1117 -0.1005,0.0813 -0.1147,0.0506 -0.1268,0.0248 -0.0626,0.003 h -0.0861 -0.3127 -1.6175 l 0.0446,-0.3126 h 1.5962 l 0.0329,-0.1954 h -0.7754 -0.3982 l -0.1294,-0.0131 -0.1182,-0.0434 -0.0369,-0.0229 -0.0828,-0.0956 -0.0112,-0.1022 z"
       id="path1233" />
    <path
       style="fill:#000000;fill-opacity:1;fill-rule:evenodd;stroke:none;stroke-width:0.3;stroke-linecap:round;stroke-linejoin:round;stroke-opacity:1"
       d="m 100.51671,142.06742 h 2.01079 l 0.1295,0.014 0.11741,0.0464 0.0364,0.0244 0.0795,0.0953 0.0151,0.116 -0.152,0.9544 h 0.7962 l -0.0452,0.3126 h -0.81389 -0.81951 l 0.19541,-1.2505 h -0.7577 l -0.19721,1.2505 h -0.836 l 0.1991,-1.2932 z"
       id="path1234" />
    <path
       style="fill:#000000;fill-opacity:1;fill-rule:evenodd;stroke:none;stroke-width:0.3;stroke-linecap:round;stroke-linejoin:round;stroke-opacity:1"
       d="m 103.72911,141.79382 h 0.8384 l -0.0397,0.2345 h 0.7962 l -0.0452,0.3126 h -0.79741 l -0.1972,1.2762 h -0.836 l 0.1967,-1.2744 -0.2003,0.0135 0.0452,-0.3279 h 0.1996 z"
       id="path1235" />
    <path
       style="fill:#000000;fill-opacity:1;fill-rule:evenodd;stroke:none;stroke-width:0.3;stroke-linecap:round;stroke-linejoin:round;stroke-opacity:1"
       d="m 105.3564,141.55932 h 0.83771 l -0.0793,0.5081 h 0.1396 0.1245 0.1266 0.1287 0.0558 0.1306 0.1307 0.1308 0.1309 0.0747 l 0.1296,0.014 0.1174,0.0464 0.0364,0.0244 0.0795,0.0953 0.0151,0.116 -0.152,0.9544 h 0.7962 l -0.0452,0.3126 h -0.1295 -0.1288 -0.12791 -0.1271 -0.1263 -0.12559 -0.0499 -0.1252 -0.1261 -0.1271 -0.1282 -0.1291 -0.1302 -0.0524 l 0.1954,-1.2505 h -0.7577 l -0.1973,1.2505 h -0.8359 z"
       id="path1236" />
    <path
       style="fill:#000000;fill-opacity:1;fill-rule:evenodd;stroke:none;stroke-width:0.3;stroke-linecap:round;stroke-linejoin:round;stroke-opacity:1"
       d="m 108.52731,141.55932 h 0.8377 l -0.2766,1.7586 h 1.5955 l -0.0451,0.3126 h -2.0108 l -0.1294,-0.0131 -0.1182,-0.0434 -0.0369,-0.0229 -0.0828,-0.0956 -0.0112,-0.1022 z"
       id="path1237" />
    <path
       style="fill:#000000;fill-opacity:1;fill-rule:evenodd;stroke:none;stroke-width:0.3;stroke-linecap:round;stroke-linejoin:round;stroke-opacity:1"
       d="m 112.96891,142.08142 0.1174,0.0464 0.0364,0.0244 0.0795,0.0953 0.0151,0.116 -0.152,0.9544 h 0.7962 l -0.0451,0.3126 h -3.22891 l 0.0476,-0.3126 h 0.8347 0.7571 l 0.0721,-0.4299 h -0.7572 l -0.072,0.4299 h -0.8347 l 0.072,-0.4726 0.0521,-0.1107 0.1012,-0.0811 0.1159,-0.0506 0.1274,-0.0248 0.0626,-0.003 h 1.17911 l 0.0324,-0.1954 h -1.5943 l 0.0445,-0.3126 h 2.01141 z"
       id="path1238" />
    <path
       style="fill:#000000;fill-opacity:1;fill-rule:evenodd;stroke:none;stroke-width:0.3;stroke-linecap:round;stroke-linejoin:round;stroke-opacity:1"
       d="m 114.83911,142.06742 h 1.173 l 0.1295,0.014 0.1174,0.0464 0.0364,0.0244 0.0796,0.0953 0.0151,0.116 -0.146,0.9544 h 0.7969 l -0.0452,0.3126 h -3.2356 l 0.0484,-0.3126 h 0.8339 0.7572 l 0.1508,-0.9379 h -0.7572 l -0.1508,0.9379 h -0.8339 l 0.27209,-1.7586 h 0.8378 z"
       id="path1239" />
  </g>
</svg>
